<svg xmlns="http://www.w3.org/2000/svg" width="800" height="800" viewBox="0 0 800 800">
  <filter id="blur" x="-40%" y="-40%" width="180%" height="180%"><feGaussianBlur stdDeviation="22"/></filter>
  <filter id="sb" x="-30%" y="-30%" width="160%" height="160%"><feGaussianBlur stdDeviation="9"/></filter>
  
  <defs>
    <linearGradient id="bg" x1="0" y1="0" x2="1" y2="1">
      <stop offset="0" stop-color="#c9a4a6"/>
      <stop offset="1" stop-color="#91626a"/>
    </linearGradient>
    <radialGradient id="glow" cx="0.5" cy="0.34" r="0.9">
      <stop offset="0" stop-color="#fff" stop-opacity="0.34"/>
      <stop offset="1" stop-color="#fff" stop-opacity="0"/>
    </radialGradient>
    <linearGradient id="vig" x1="0" y1="0" x2="0" y2="1">
      <stop offset="0.55" stop-color="#1a1a1a" stop-opacity="0"/>
      <stop offset="1" stop-color="#1a1a1a" stop-opacity="0.34"/>
    </linearGradient>
    <radialGradient id="plateG">
      <stop offset="0" stop-color="#fffdfa"/>
      <stop offset="1" stop-color="#e9dfd2"/>
    </radialGradient>
    <radialGradient id="plateRim">
      <stop offset="0.8" stop-color="#f3eadc"/>
      <stop offset="1" stop-color="#d9cbb8"/>
    </radialGradient>
  </defs>
  <rect width="800" height="800" fill="url(#bg)"/>
  <circle cx="400" cy="256" r="480" fill="url(#glow)"/>
  <g>
    <circle cx="144" cy="176" r="30" fill="#fff" opacity="0.2" filter="url(#sb)"/><circle cx="656" cy="144" r="44" fill="#fff" opacity="0.16000000000000003" filter="url(#sb)"/><circle cx="704" cy="560" r="24" fill="#fff" opacity="0.18000000000000002" filter="url(#sb)"/><circle cx="80" cy="544" r="20" fill="#fff" opacity="0.2" filter="url(#sb)"/><circle cx="440.00000000000006" cy="112.00000000000001" r="16" fill="#fff" opacity="0.22000000000000003" filter="url(#sb)"/>
    
  <ellipse cx="400" cy="560.64" rx="285.6" ry="217.60000000000002" fill="#160f0b" opacity="0.28" filter="url(#blur)" transform="translate(0 34.816)"/>
  <ellipse cx="400" cy="560.64" rx="285.6" ry="217.60000000000002" fill="url(#plateG)" stroke="url(#plateRim)" stroke-width="12.852"/>
  <ellipse cx="400" cy="560.64" rx="245.616" ry="187.13600000000002" fill="none" stroke="#fff" stroke-opacity="0.55" stroke-width="2"/>
    <ellipse cx="400" cy="506.24" rx="152.32000000000002" ry="178.43200000000002" fill="#5d2b24" filter="url(#sb)" transform="translate(0 52.224000000000004)" opacity="0.5"/>
    <path d="M 247.67999999999998 471.424 Q 247.67999999999998 288.64, 400 288.64 Q 552.32 288.64, 552.32 471.424 Z" fill="#8a4a3f"/>
    <path d="M 345.6 297.34399999999994 Q 413.6 245.11999999999995, 481.6 301.69599999999997 L 481.6 484.48 L 345.6 484.48 Z" fill="#5d2b24" opacity="0.9"/>
    <ellipse cx="400" cy="480.128" rx="163.2" ry="60.92800000000001" fill="#7d3b20" opacity="0.5"/>
    <circle cx="492.48" cy="314.75199999999995" r="27.200000000000003" fill="#7d8f4d"/>
    <circle cx="291.2" cy="332.15999999999997" r="24.48" fill="#7d8f4d"/>
    
    <path d="M 384 329.52
             C 370 299.52,
               400 271.52,
               384 237.51999999999998"
          fill="none" stroke="#ffffff" stroke-opacity="0.4" stroke-width="7" stroke-linecap="round" filter="url(#sb)"/>
    <path d="M 416 329.52
             C 402 299.52,
               432 271.52,
               416 237.51999999999998"
          fill="none" stroke="#ffffff" stroke-opacity="0.4" stroke-width="7" stroke-linecap="round" filter="url(#sb)"/></g>
  
</svg>
